<svg width="32" height="30" viewBox="0 0 32 30" fill="none" xmlns="http://www.w3.org/2000/svg">
<path d="M9.10107 21.2663L14.8386 21.2475L27.3615 9.3225C27.853 8.85 28.1234 8.2225 28.1234 7.555C28.1234 6.8875 27.853 6.26 27.3615 5.7875L25.2995 3.805C24.3166 2.86 22.6017 2.865 21.6266 3.80125L9.10107 15.7288V21.2663ZM23.4611 5.5725L25.527 7.55125L23.4507 9.52875L21.3887 7.5475L23.4611 5.5725ZM11.7014 16.7713L19.5412 9.305L21.6032 11.2875L13.7647 18.7513L11.7014 18.7575V16.7713Z" fill="white"/>
<path d="M6.50067 26.25H24.7026C26.1367 26.25 27.3029 25.1287 27.3029 23.75V12.915L24.7026 15.415V23.75H10.6065C10.5727 23.75 10.5376 23.7625 10.5038 23.7625C10.4609 23.7625 10.418 23.7512 10.3738 23.75H6.50067V6.25H15.4027L18.003 3.75H6.50067C5.06661 3.75 3.90039 4.87125 3.90039 6.25V23.75C3.90039 25.1287 5.06661 26.25 6.50067 26.25Z" fill="white"/>
</svg>
